<?xml version="1.0" encoding="UTF-8"?>
<svg xmlns="http://www.w3.org/2000/svg" xmlns:xlink="http://www.w3.org/1999/xlink" width="810pt" height="809.999993pt" viewBox="0 0 810 809.999993" version="1.2">
<defs>
<clipPath id="clip1">
  <path d="M 40.890625 40.890625 L 769.140625 40.890625 L 769.140625 769.140625 L 40.890625 769.140625 Z M 40.890625 40.890625 "/>
</clipPath>
<clipPath id="clip2">
  <path d="M 562.828125 574.964844 C 549.457031 574.964844 538.550781 564.0625 538.550781 550.691406 C 538.550781 537.320312 549.457031 526.414062 562.828125 526.414062 C 576.199219 526.414062 587.105469 537.320312 587.105469 550.691406 C 587.105469 564.0625 576.199219 574.964844 562.828125 574.964844 Z M 405.03125 477.863281 C 364.875 477.863281 332.203125 445.191406 332.203125 405.035156 C 332.203125 364.875 364.875 332.203125 405.03125 332.203125 C 445.191406 332.203125 477.863281 364.875 477.863281 405.035156 C 477.863281 445.191406 445.191406 477.863281 405.03125 477.863281 Z M 453.585938 696.347656 C 453.585938 723.136719 431.824219 744.898438 405.03125 744.898438 C 378.242188 744.898438 356.480469 723.136719 356.480469 696.347656 C 356.480469 669.558594 378.242188 647.792969 405.03125 647.792969 C 431.824219 647.792969 453.585938 669.558594 453.585938 696.347656 Z M 186.546875 222.960938 C 166.445312 222.960938 150.132812 206.652344 150.132812 186.546875 C 150.132812 166.445312 166.445312 150.132812 186.546875 150.132812 C 206.652344 150.132812 222.960938 166.445312 222.960938 186.546875 C 222.960938 206.652344 206.652344 222.960938 186.546875 222.960938 Z M 295.789062 65.167969 C 309.160156 65.167969 320.066406 76.070312 320.066406 89.441406 C 320.066406 102.8125 309.160156 113.71875 295.789062 113.71875 C 282.417969 113.71875 271.515625 102.8125 271.515625 89.441406 C 271.515625 76.070312 282.417969 65.167969 295.789062 65.167969 Z M 708.484375 65.167969 C 728.589844 65.167969 744.898438 81.476562 744.898438 101.582031 C 744.898438 121.683594 728.589844 137.996094 708.484375 137.996094 C 688.382812 137.996094 672.070312 121.683594 672.070312 101.582031 C 672.070312 81.476562 688.382812 65.167969 708.484375 65.167969 Z M 708.484375 368.617188 C 728.589844 368.617188 744.898438 384.929688 744.898438 405.035156 C 744.898438 425.136719 728.589844 441.449219 708.484375 441.449219 C 688.382812 441.449219 672.070312 425.136719 672.070312 405.035156 C 672.070312 384.929688 688.382812 368.617188 708.484375 368.617188 Z M 720.625 672.070312 C 733.996094 672.070312 744.898438 682.976562 744.898438 696.347656 C 744.898438 709.71875 733.996094 720.625 720.625 720.625 C 707.253906 720.625 696.347656 709.71875 696.347656 696.347656 C 696.347656 682.976562 707.253906 672.070312 720.625 672.070312 Z M 198.6875 429.308594 C 185.316406 429.308594 174.410156 418.402344 174.410156 405.035156 C 174.410156 391.664062 185.316406 380.757812 198.6875 380.757812 C 212.054688 380.757812 222.960938 391.664062 222.960938 405.035156 C 222.960938 418.402344 212.054688 429.308594 198.6875 429.308594 Z M 89.441406 538.550781 C 76.070312 538.550781 65.167969 527.648438 65.167969 514.277344 C 65.167969 500.90625 76.070312 490 89.441406 490 C 102.8125 490 113.71875 500.90625 113.71875 514.277344 C 113.71875 527.648438 102.8125 538.550781 89.441406 538.550781 Z M 708.484375 465.722656 C 741.960938 465.722656 769.175781 438.507812 769.175781 405.035156 C 769.175781 371.558594 741.960938 344.34375 708.484375 344.34375 C 679.183594 344.34375 654.671875 365.207031 649.027344 392.894531 L 501.285156 392.894531 C 499.054688 375.210938 492.085938 358.992188 481.65625 345.574219 L 675.058594 152.171875 C 684.636719 158.527344 696.109375 162.273438 708.484375 162.273438 C 741.960938 162.273438 769.175781 135.054688 769.175781 101.582031 C 769.175781 68.105469 741.960938 40.890625 708.484375 40.890625 C 675.011719 40.890625 647.792969 68.105469 647.792969 101.582031 C 647.792969 113.957031 651.539062 125.429688 657.894531 135.007812 L 464.492188 328.410156 C 448.039062 315.65625 427.414062 307.929688 405.03125 307.929688 C 382.652344 307.929688 362.027344 315.65625 345.574219 328.410156 L 237.140625 219.976562 C 243.492188 210.398438 247.238281 198.921875 247.238281 186.546875 C 247.238281 177.398438 245.058594 168.765625 241.40625 160.992188 L 271.277344 131.121094 C 278.484375 135.386719 286.828125 137.996094 295.789062 137.996094 C 322.578125 137.996094 344.34375 116.230469 344.34375 89.441406 C 344.34375 62.652344 322.578125 40.890625 295.789062 40.890625 C 269 40.890625 247.238281 62.652344 247.238281 89.441406 C 247.238281 98.40625 249.847656 106.75 254.113281 113.957031 L 226.660156 141.410156 C 215.945312 131.832031 202.003906 125.855469 186.546875 125.855469 C 153.074219 125.855469 125.855469 153.074219 125.855469 186.546875 C 125.855469 220.023438 153.074219 247.238281 186.546875 247.238281 C 198.921875 247.238281 210.398438 243.492188 219.976562 237.140625 L 328.410156 345.574219 C 317.980469 358.992188 311.011719 375.210938 308.78125 392.894531 L 245.53125 392.894531 C 240.078125 372.03125 221.253906 356.480469 198.6875 356.480469 C 171.898438 356.480469 150.132812 378.242188 150.132812 405.035156 C 150.132812 413.996094 152.742188 422.339844 157.007812 429.546875 L 113.957031 472.597656 C 106.75 468.332031 98.40625 465.722656 89.441406 465.722656 C 62.652344 465.722656 40.890625 487.488281 40.890625 514.277344 C 40.890625 541.066406 62.652344 562.828125 89.441406 562.828125 C 116.230469 562.828125 137.996094 541.066406 137.996094 514.277344 C 137.996094 505.316406 135.386719 496.96875 131.121094 489.761719 L 174.171875 446.710938 C 181.378906 450.976562 189.722656 453.585938 198.6875 453.585938 C 221.253906 453.585938 240.078125 438.035156 245.53125 417.171875 L 308.78125 417.171875 C 314.28125 460.980469 349.085938 495.785156 392.894531 501.285156 L 392.894531 624.609375 C 358.519531 630.441406 332.203125 660.3125 332.203125 696.347656 C 332.203125 736.507812 364.875 769.175781 405.03125 769.175781 C 441.066406 769.175781 470.9375 742.859375 476.769531 708.484375 L 673.777344 708.484375 C 679.230469 729.347656 698.054688 744.898438 720.625 744.898438 C 747.414062 744.898438 769.175781 723.136719 769.175781 696.347656 C 769.175781 669.558594 747.414062 647.792969 720.625 647.792969 C 698.054688 647.792969 679.230469 663.347656 673.777344 684.210938 L 476.769531 684.210938 C 471.601562 653.769531 447.609375 629.777344 417.171875 624.609375 L 417.171875 501.285156 C 460.980469 495.785156 495.785156 460.980469 501.285156 417.171875 L 649.027344 417.171875 C 650.59375 424.898438 653.675781 432.058594 657.894531 438.460938 L 587.339844 509.011719 C 580.132812 504.746094 571.789062 502.136719 562.828125 502.136719 C 536.039062 502.136719 514.277344 523.902344 514.277344 550.691406 C 514.277344 577.480469 536.039062 599.242188 562.828125 599.242188 C 589.617188 599.242188 611.378906 577.480469 611.378906 550.691406 C 611.378906 541.730469 608.773438 533.382812 604.503906 526.175781 L 675.058594 455.625 C 684.636719 461.976562 696.109375 465.722656 708.484375 465.722656 Z M 708.484375 465.722656 "/>
</clipPath>
<clipPath id="clip3">
  <path d="M 562.828125 574.964844 C 549.457031 574.964844 538.550781 564.0625 538.550781 550.691406 C 538.550781 537.320312 549.457031 526.414062 562.828125 526.414062 C 576.199219 526.414062 587.105469 537.320312 587.105469 550.691406 C 587.105469 564.0625 576.199219 574.964844 562.828125 574.964844 Z M 405.03125 477.863281 C 364.875 477.863281 332.203125 445.191406 332.203125 405.035156 C 332.203125 364.875 364.875 332.203125 405.03125 332.203125 C 445.191406 332.203125 477.863281 364.875 477.863281 405.035156 C 477.863281 445.191406 445.191406 477.863281 405.03125 477.863281 Z M 453.585938 696.347656 C 453.585938 723.136719 431.824219 744.898438 405.03125 744.898438 C 378.242188 744.898438 356.480469 723.136719 356.480469 696.347656 C 356.480469 669.558594 378.242188 647.792969 405.03125 647.792969 C 431.824219 647.792969 453.585938 669.558594 453.585938 696.347656 Z M 186.546875 222.960938 C 166.445312 222.960938 150.132812 206.652344 150.132812 186.546875 C 150.132812 166.445312 166.445312 150.132812 186.546875 150.132812 C 206.652344 150.132812 222.960938 166.445312 222.960938 186.546875 C 222.960938 206.652344 206.652344 222.960938 186.546875 222.960938 Z M 295.789062 65.167969 C 309.160156 65.167969 320.066406 76.070312 320.066406 89.441406 C 320.066406 102.8125 309.160156 113.71875 295.789062 113.71875 C 282.417969 113.71875 271.515625 102.8125 271.515625 89.441406 C 271.515625 76.070312 282.417969 65.167969 295.789062 65.167969 Z M 708.484375 65.167969 C 728.589844 65.167969 744.898438 81.476562 744.898438 101.582031 C 744.898438 121.683594 728.589844 137.996094 708.484375 137.996094 C 688.382812 137.996094 672.070312 121.683594 672.070312 101.582031 C 672.070312 81.476562 688.382812 65.167969 708.484375 65.167969 Z M 708.484375 368.617188 C 728.589844 368.617188 744.898438 384.929688 744.898438 405.035156 C 744.898438 425.136719 728.589844 441.449219 708.484375 441.449219 C 688.382812 441.449219 672.070312 425.136719 672.070312 405.035156 C 672.070312 384.929688 688.382812 368.617188 708.484375 368.617188 Z M 720.625 672.070312 C 733.996094 672.070312 744.898438 682.976562 744.898438 696.347656 C 744.898438 709.71875 733.996094 720.625 720.625 720.625 C 707.253906 720.625 696.347656 709.71875 696.347656 696.347656 C 696.347656 682.976562 707.253906 672.070312 720.625 672.070312 Z M 198.6875 429.308594 C 185.316406 429.308594 174.410156 418.402344 174.410156 405.035156 C 174.410156 391.664062 185.316406 380.757812 198.6875 380.757812 C 212.054688 380.757812 222.960938 391.664062 222.960938 405.035156 C 222.960938 418.402344 212.054688 429.308594 198.6875 429.308594 Z M 89.441406 538.550781 C 76.070312 538.550781 65.167969 527.648438 65.167969 514.277344 C 65.167969 500.90625 76.070312 490 89.441406 490 C 102.8125 490 113.71875 500.90625 113.71875 514.277344 C 113.71875 527.648438 102.8125 538.550781 89.441406 538.550781 Z M 708.484375 465.722656 C 741.960938 465.722656 769.175781 438.507812 769.175781 405.035156 C 769.175781 371.558594 741.960938 344.34375 708.484375 344.34375 C 679.183594 344.34375 654.671875 365.207031 649.027344 392.894531 L 501.285156 392.894531 C 499.054688 375.210938 492.085938 358.992188 481.65625 345.574219 L 675.058594 152.171875 C 684.636719 158.527344 696.109375 162.273438 708.484375 162.273438 C 741.960938 162.273438 769.175781 135.054688 769.175781 101.582031 C 769.175781 68.105469 741.960938 40.890625 708.484375 40.890625 C 675.011719 40.890625 647.792969 68.105469 647.792969 101.582031 C 647.792969 113.957031 651.539062 125.429688 657.894531 135.007812 L 464.492188 328.410156 C 448.039062 315.65625 427.414062 307.929688 405.03125 307.929688 C 382.652344 307.929688 362.027344 315.65625 345.574219 328.410156 L 237.140625 219.976562 C 243.492188 210.398438 247.238281 198.921875 247.238281 186.546875 C 247.238281 177.398438 245.058594 168.765625 241.40625 160.992188 L 271.277344 131.121094 C 278.484375 135.386719 286.828125 137.996094 295.789062 137.996094 C 322.578125 137.996094 344.34375 116.230469 344.34375 89.441406 C 344.34375 62.652344 322.578125 40.890625 295.789062 40.890625 C 269 40.890625 247.238281 62.652344 247.238281 89.441406 C 247.238281 98.40625 249.847656 106.75 254.113281 113.957031 L 226.660156 141.410156 C 215.945312 131.832031 202.003906 125.855469 186.546875 125.855469 C 153.074219 125.855469 125.855469 153.074219 125.855469 186.546875 C 125.855469 220.023438 153.074219 247.238281 186.546875 247.238281 C 198.921875 247.238281 210.398438 243.492188 219.976562 237.140625 L 328.410156 345.574219 C 317.980469 358.992188 311.011719 375.210938 308.78125 392.894531 L 245.53125 392.894531 C 240.078125 372.03125 221.253906 356.480469 198.6875 356.480469 C 171.898438 356.480469 150.132812 378.242188 150.132812 405.035156 C 150.132812 413.996094 152.742188 422.339844 157.007812 429.546875 L 113.957031 472.597656 C 106.75 468.332031 98.40625 465.722656 89.441406 465.722656 C 62.652344 465.722656 40.890625 487.488281 40.890625 514.277344 C 40.890625 541.066406 62.652344 562.828125 89.441406 562.828125 C 116.230469 562.828125 137.996094 541.066406 137.996094 514.277344 C 137.996094 505.316406 135.386719 496.96875 131.121094 489.761719 L 174.171875 446.710938 C 181.378906 450.976562 189.722656 453.585938 198.6875 453.585938 C 221.253906 453.585938 240.078125 438.035156 245.53125 417.171875 L 308.78125 417.171875 C 314.28125 460.980469 349.085938 495.785156 392.894531 501.285156 L 392.894531 624.609375 C 358.519531 630.441406 332.203125 660.3125 332.203125 696.347656 C 332.203125 736.507812 364.875 769.175781 405.03125 769.175781 C 441.066406 769.175781 470.9375 742.859375 476.769531 708.484375 L 673.777344 708.484375 C 679.230469 729.347656 698.054688 744.898438 720.625 744.898438 C 747.414062 744.898438 769.175781 723.136719 769.175781 696.347656 C 769.175781 669.558594 747.414062 647.792969 720.625 647.792969 C 698.054688 647.792969 679.230469 663.347656 673.777344 684.210938 L 476.769531 684.210938 C 471.601562 653.769531 447.609375 629.777344 417.171875 624.609375 L 417.171875 501.285156 C 460.980469 495.785156 495.785156 460.980469 501.285156 417.171875 L 649.027344 417.171875 C 650.59375 424.898438 653.675781 432.058594 657.894531 438.460938 L 587.339844 509.011719 C 580.132812 504.746094 571.789062 502.136719 562.828125 502.136719 C 536.039062 502.136719 514.277344 523.902344 514.277344 550.691406 C 514.277344 577.480469 536.039062 599.242188 562.828125 599.242188 C 589.617188 599.242188 611.378906 577.480469 611.378906 550.691406 C 611.378906 541.730469 608.773438 533.382812 604.503906 526.175781 L 675.058594 455.625 C 684.636719 461.976562 696.109375 465.722656 708.484375 465.722656 "/>
</clipPath>
<linearGradient id="linear0" gradientUnits="userSpaceOnUse" x1="0.00542935" y1="0" x2="0.983643" y2="0" gradientTransform="matrix(0,744.468864,-744.468864,0,405.03323,36.84871)">
<stop offset="0" style="stop-color:rgb(98.355103%,0.442505%,100%);stop-opacity:1;"/>
<stop offset="0.00390625" style="stop-color:rgb(97.967529%,0.83313%,99.986267%);stop-opacity:1;"/>
<stop offset="0.0078125" style="stop-color:rgb(97.581482%,1.223755%,99.97406%);stop-opacity:1;"/>
<stop offset="0.0117187" style="stop-color:rgb(97.238159%,1.611328%,99.786377%);stop-opacity:1;"/>
<stop offset="0.015625" style="stop-color:rgb(96.894836%,1.998901%,99.598694%);stop-opacity:1;"/>
<stop offset="0.0195312" style="stop-color:rgb(96.453857%,2.230835%,99.598694%);stop-opacity:1;"/>
<stop offset="0.0234375" style="stop-color:rgb(96.012878%,2.462769%,99.598694%);stop-opacity:1;"/>
<stop offset="0.0273438" style="stop-color:rgb(95.622253%,2.813721%,99.598694%);stop-opacity:1;"/>
<stop offset="0.03125" style="stop-color:rgb(95.233154%,3.166199%,99.598694%);stop-opacity:1;"/>
<stop offset="0.0351562" style="stop-color:rgb(94.842529%,3.53241%,99.575806%);stop-opacity:1;"/>
<stop offset="0.0390625" style="stop-color:rgb(94.451904%,3.898621%,99.552917%);stop-opacity:1;"/>
<stop offset="0.0429687" style="stop-color:rgb(94.061279%,4.112244%,99.375916%);stop-opacity:1;"/>
<stop offset="0.046875" style="stop-color:rgb(93.67218%,4.327393%,99.198914%);stop-opacity:1;"/>
<stop offset="0.0507812" style="stop-color:rgb(93.281555%,4.716492%,99.198914%);stop-opacity:1;"/>
<stop offset="0.0546875" style="stop-color:rgb(92.89093%,5.107117%,99.198914%);stop-opacity:1;"/>
<stop offset="0.0585937" style="stop-color:rgb(92.549133%,5.497742%,99.198914%);stop-opacity:1;"/>
<stop offset="0.0625" style="stop-color:rgb(92.207336%,5.888367%,99.198914%);stop-opacity:1;"/>
<stop offset="0.0664062" style="stop-color:rgb(91.767883%,6.12793%,99.163818%);stop-opacity:1;"/>
<stop offset="0.0703125" style="stop-color:rgb(91.329956%,6.369019%,99.130249%);stop-opacity:1;"/>
<stop offset="0.0742187" style="stop-color:rgb(90.939331%,6.758118%,98.963928%);stop-opacity:1;"/>
<stop offset="0.078125" style="stop-color:rgb(90.548706%,7.148743%,98.799133%);stop-opacity:1;"/>
<stop offset="0.0820312" style="stop-color:rgb(90.158081%,7.489014%,98.799133%);stop-opacity:1;"/>
<stop offset="0.0859375" style="stop-color:rgb(89.768982%,7.829285%,98.799133%);stop-opacity:1;"/>
<stop offset="0.0898438" style="stop-color:rgb(89.378357%,8.02002%,98.799133%);stop-opacity:1;"/>
<stop offset="0.09375" style="stop-color:rgb(88.987732%,8.210754%,98.799133%);stop-opacity:1;"/>
<stop offset="0.0976562" style="stop-color:rgb(88.597107%,8.599854%,98.799133%);stop-opacity:1;"/>
<stop offset="0.101562" style="stop-color:rgb(88.208008%,8.990479%,98.799133%);stop-opacity:1;"/>
<stop offset="0.105469" style="stop-color:rgb(87.976074%,9.431458%,98.599243%);stop-opacity:1;"/>
<stop offset="0.109375" style="stop-color:rgb(87.744141%,9.872437%,98.399353%);stop-opacity:1;"/>
<stop offset="0.113281" style="stop-color:rgb(87.394714%,10.061646%,98.399353%);stop-opacity:1;"/>
<stop offset="0.117187" style="stop-color:rgb(87.045288%,10.25238%,98.399353%);stop-opacity:1;"/>
<stop offset="0.121094" style="stop-color:rgb(86.654663%,10.643005%,98.399353%);stop-opacity:1;"/>
<stop offset="0.125" style="stop-color:rgb(86.265564%,11.03363%,98.399353%);stop-opacity:1;"/>
<stop offset="0.128906" style="stop-color:rgb(85.874939%,11.422729%,98.391724%);stop-opacity:1;"/>
<stop offset="0.132812" style="stop-color:rgb(85.484314%,11.813354%,98.384094%);stop-opacity:1;"/>
<stop offset="0.136719" style="stop-color:rgb(85.093689%,12.005615%,98.191833%);stop-opacity:1;"/>
<stop offset="0.140625" style="stop-color:rgb(84.70459%,12.199402%,97.999573%);stop-opacity:1;"/>
<stop offset="0.144531" style="stop-color:rgb(84.263611%,12.586975%,97.999573%);stop-opacity:1;"/>
<stop offset="0.148437" style="stop-color:rgb(83.824158%,12.974548%,97.999573%);stop-opacity:1;"/>
<stop offset="0.152344" style="stop-color:rgb(83.433533%,13.365173%,97.999573%);stop-opacity:1;"/>
<stop offset="0.15625" style="stop-color:rgb(83.042908%,13.755798%,97.999573%);stop-opacity:1;"/>
<stop offset="0.160156" style="stop-color:rgb(82.702637%,14.126587%,97.799683%);stop-opacity:1;"/>
<stop offset="0.164062" style="stop-color:rgb(82.362366%,14.498901%,97.599792%);stop-opacity:1;"/>
<stop offset="0.167969" style="stop-color:rgb(81.971741%,14.707947%,97.599792%);stop-opacity:1;"/>
<stop offset="0.171875" style="stop-color:rgb(81.581116%,14.916992%,97.599792%);stop-opacity:1;"/>
<stop offset="0.175781" style="stop-color:rgb(81.190491%,15.306091%,97.599792%);stop-opacity:1;"/>
<stop offset="0.179687" style="stop-color:rgb(80.801392%,15.696716%,97.599792%);stop-opacity:1;"/>
<stop offset="0.183594" style="stop-color:rgb(80.410767%,16.087341%,97.599792%);stop-opacity:1;"/>
<stop offset="0.1875" style="stop-color:rgb(80.020142%,16.477966%,97.599792%);stop-opacity:1;"/>
<stop offset="0.191406" style="stop-color:rgb(79.579163%,16.717529%,97.44873%);stop-opacity:1;"/>
<stop offset="0.195312" style="stop-color:rgb(79.139709%,16.958618%,97.299194%);stop-opacity:1;"/>
<stop offset="0.199219" style="stop-color:rgb(78.749084%,17.298889%,97.299194%);stop-opacity:1;"/>
<stop offset="0.203125" style="stop-color:rgb(78.358459%,17.63916%,97.299194%);stop-opacity:1;"/>
<stop offset="0.207031" style="stop-color:rgb(77.970886%,18.019104%,97.299194%);stop-opacity:1;"/>
<stop offset="0.210937" style="stop-color:rgb(77.583313%,18.399048%,97.299194%);stop-opacity:1;"/>
<stop offset="0.214844" style="stop-color:rgb(77.23999%,18.598938%,97.299194%);stop-opacity:1;"/>
<stop offset="0.21875" style="stop-color:rgb(76.898193%,18.800354%,97.299194%);stop-opacity:1;"/>
<stop offset="0.222656" style="stop-color:rgb(76.507568%,19.190979%,97.108459%);stop-opacity:1;"/>
<stop offset="0.226562" style="stop-color:rgb(76.116943%,19.581604%,96.917725%);stop-opacity:1;"/>
<stop offset="0.230469" style="stop-color:rgb(75.875854%,20.021057%,96.908569%);stop-opacity:1;"/>
<stop offset="0.234375" style="stop-color:rgb(75.636292%,20.462036%,96.899414%);stop-opacity:1;"/>
<stop offset="0.238281" style="stop-color:rgb(75.245667%,20.651245%,96.899414%);stop-opacity:1;"/>
<stop offset="0.242187" style="stop-color:rgb(74.856567%,20.84198%,96.899414%);stop-opacity:1;"/>
<stop offset="0.246094" style="stop-color:rgb(74.465942%,21.232605%,96.899414%);stop-opacity:1;"/>
<stop offset="0.25" style="stop-color:rgb(74.075317%,21.62323%,96.899414%);stop-opacity:1;"/>
<stop offset="0.253906" style="stop-color:rgb(73.684692%,22.012329%,96.699524%);stop-opacity:1;"/>
<stop offset="0.257812" style="stop-color:rgb(73.294067%,22.402954%,96.499634%);stop-opacity:1;"/>
<stop offset="0.261719" style="stop-color:rgb(72.903442%,22.550964%,96.499634%);stop-opacity:1;"/>
<stop offset="0.265625" style="stop-color:rgb(72.514343%,22.698975%,96.499634%);stop-opacity:1;"/>
<stop offset="0.269531" style="stop-color:rgb(72.123718%,23.130798%,96.499634%);stop-opacity:1;"/>
<stop offset="0.273437" style="stop-color:rgb(71.733093%,23.564148%,96.499634%);stop-opacity:1;"/>
<stop offset="0.277344" style="stop-color:rgb(71.342468%,23.954773%,96.499634%);stop-opacity:1;"/>
<stop offset="0.28125" style="stop-color:rgb(70.953369%,24.345398%,96.499634%);stop-opacity:1;"/>
<stop offset="0.285156" style="stop-color:rgb(70.562744%,24.536133%,96.299744%);stop-opacity:1;"/>
<stop offset="0.289062" style="stop-color:rgb(70.172119%,24.726868%,96.099854%);stop-opacity:1;"/>
<stop offset="0.292969" style="stop-color:rgb(69.781494%,25.115967%,96.099854%);stop-opacity:1;"/>
<stop offset="0.296875" style="stop-color:rgb(69.392395%,25.506592%,96.099854%);stop-opacity:1;"/>
<stop offset="0.300781" style="stop-color:rgb(69.00177%,25.897217%,96.099854%);stop-opacity:1;"/>
<stop offset="0.304687" style="stop-color:rgb(68.611145%,26.287842%,96.099854%);stop-opacity:1;"/>
<stop offset="0.308594" style="stop-color:rgb(68.22052%,26.676941%,96.099854%);stop-opacity:1;"/>
<stop offset="0.3125" style="stop-color:rgb(67.829895%,27.067566%,96.099854%);stop-opacity:1;"/>
<stop offset="0.316406" style="stop-color:rgb(67.43927%,27.301025%,95.898438%);stop-opacity:1;"/>
<stop offset="0.320312" style="stop-color:rgb(67.050171%,27.536011%,95.698547%);stop-opacity:1;"/>
<stop offset="0.324219" style="stop-color:rgb(66.659546%,27.882385%,95.698547%);stop-opacity:1;"/>
<stop offset="0.328125" style="stop-color:rgb(66.268921%,28.22876%,95.698547%);stop-opacity:1;"/>
<stop offset="0.332031" style="stop-color:rgb(65.878296%,28.613281%,95.698547%);stop-opacity:1;"/>
<stop offset="0.335937" style="stop-color:rgb(65.489197%,28.999329%,95.698547%);stop-opacity:1;"/>
<stop offset="0.339844" style="stop-color:rgb(65.098572%,29.194641%,95.698547%);stop-opacity:1;"/>
<stop offset="0.34375" style="stop-color:rgb(64.707947%,29.389954%,95.698547%);stop-opacity:1;"/>
<stop offset="0.347656" style="stop-color:rgb(64.317322%,29.780579%,95.51239%);stop-opacity:1;"/>
<stop offset="0.351562" style="stop-color:rgb(63.926697%,30.171204%,95.327759%);stop-opacity:1;"/>
<stop offset="0.355469" style="stop-color:rgb(63.685608%,30.584717%,95.3125%);stop-opacity:1;"/>
<stop offset="0.359375" style="stop-color:rgb(63.446045%,30.999756%,95.298767%);stop-opacity:1;"/>
<stop offset="0.363281" style="stop-color:rgb(63.059998%,31.216431%,95.298767%);stop-opacity:1;"/>
<stop offset="0.367187" style="stop-color:rgb(62.67395%,31.433105%,95.298767%);stop-opacity:1;"/>
<stop offset="0.371094" style="stop-color:rgb(62.329102%,31.820679%,95.298767%);stop-opacity:1;"/>
<stop offset="0.375" style="stop-color:rgb(61.985779%,32.209778%,95.298767%);stop-opacity:1;"/>
<stop offset="0.378906" style="stop-color:rgb(61.595154%,32.551575%,95.101929%);stop-opacity:1;"/>
<stop offset="0.382812" style="stop-color:rgb(61.204529%,32.893372%,94.90509%);stop-opacity:1;"/>
<stop offset="0.386719" style="stop-color:rgb(60.813904%,33.096313%,94.902039%);stop-opacity:1;"/>
<stop offset="0.390625" style="stop-color:rgb(60.424805%,33.299255%,94.898987%);stop-opacity:1;"/>
<stop offset="0.394531" style="stop-color:rgb(59.983826%,33.726501%,94.898987%);stop-opacity:1;"/>
<stop offset="0.398437" style="stop-color:rgb(59.544373%,34.155273%,94.898987%);stop-opacity:1;"/>
<stop offset="0.402344" style="stop-color:rgb(59.153748%,34.544373%,94.898987%);stop-opacity:1;"/>
<stop offset="0.40625" style="stop-color:rgb(58.763123%,34.934998%,94.898987%);stop-opacity:1;"/>
<stop offset="0.410156" style="stop-color:rgb(58.372498%,35.125732%,94.699097%);stop-opacity:1;"/>
<stop offset="0.414062" style="stop-color:rgb(57.981873%,35.316467%,94.499207%);stop-opacity:1;"/>
<stop offset="0.417969" style="stop-color:rgb(57.641602%,35.705566%,94.499207%);stop-opacity:1;"/>
<stop offset="0.421875" style="stop-color:rgb(57.301331%,36.096191%,94.499207%);stop-opacity:1;"/>
<stop offset="0.425781" style="stop-color:rgb(56.910706%,36.486816%,94.499207%);stop-opacity:1;"/>
<stop offset="0.429687" style="stop-color:rgb(56.521606%,36.877441%,94.499207%);stop-opacity:1;"/>
<stop offset="0.433594" style="stop-color:rgb(56.130981%,37.088013%,94.499207%);stop-opacity:1;"/>
<stop offset="0.4375" style="stop-color:rgb(55.740356%,37.298584%,94.499207%);stop-opacity:1;"/>
<stop offset="0.441406" style="stop-color:rgb(55.299377%,37.667847%,94.299316%);stop-opacity:1;"/>
<stop offset="0.445312" style="stop-color:rgb(54.859924%,38.038635%,94.099426%);stop-opacity:1;"/>
<stop offset="0.449219" style="stop-color:rgb(54.469299%,38.42926%,94.099426%);stop-opacity:1;"/>
<stop offset="0.453125" style="stop-color:rgb(54.078674%,38.819885%,94.099426%);stop-opacity:1;"/>
<stop offset="0.457031" style="stop-color:rgb(53.688049%,39.208984%,94.099426%);stop-opacity:1;"/>
<stop offset="0.460937" style="stop-color:rgb(53.29895%,39.599609%,94.099426%);stop-opacity:1;"/>
<stop offset="0.464844" style="stop-color:rgb(52.908325%,39.790344%,94.099426%);stop-opacity:1;"/>
<stop offset="0.46875" style="stop-color:rgb(52.5177%,39.981079%,94.099426%);stop-opacity:1;"/>
<stop offset="0.472656" style="stop-color:rgb(52.177429%,40.370178%,93.899536%);stop-opacity:1;"/>
<stop offset="0.476562" style="stop-color:rgb(51.837158%,40.760803%,93.699646%);stop-opacity:1;"/>
<stop offset="0.480469" style="stop-color:rgb(51.596069%,41.178894%,93.699646%);stop-opacity:1;"/>
<stop offset="0.484375" style="stop-color:rgb(51.356506%,41.598511%,93.699646%);stop-opacity:1;"/>
<stop offset="0.488281" style="stop-color:rgb(50.965881%,41.810608%,93.699646%);stop-opacity:1;"/>
<stop offset="0.492187" style="stop-color:rgb(50.576782%,42.022705%,93.699646%);stop-opacity:1;"/>
<stop offset="0.496094" style="stop-color:rgb(50.186157%,42.362976%,93.696594%);stop-opacity:1;"/>
<stop offset="0.5" style="stop-color:rgb(49.795532%,42.703247%,93.695068%);stop-opacity:1;"/>
<stop offset="0.503906" style="stop-color:rgb(49.404907%,43.092346%,93.496704%);stop-opacity:1;"/>
<stop offset="0.507812" style="stop-color:rgb(49.014282%,43.482971%,93.299866%);stop-opacity:1;"/>
<stop offset="0.511719" style="stop-color:rgb(48.623657%,43.673706%,93.299866%);stop-opacity:1;"/>
<stop offset="0.515625" style="stop-color:rgb(48.234558%,43.864441%,93.299866%);stop-opacity:1;"/>
<stop offset="0.519531" style="stop-color:rgb(47.843933%,44.303894%,93.299866%);stop-opacity:1;"/>
<stop offset="0.523438" style="stop-color:rgb(47.453308%,44.744873%,93.299866%);stop-opacity:1;"/>
<stop offset="0.527344" style="stop-color:rgb(47.062683%,45.121765%,93.286133%);stop-opacity:1;"/>
<stop offset="0.53125" style="stop-color:rgb(46.673584%,45.498657%,93.2724%);stop-opacity:1;"/>
<stop offset="0.535156" style="stop-color:rgb(46.282959%,45.701599%,93.084717%);stop-opacity:1;"/>
<stop offset="0.539062" style="stop-color:rgb(45.892334%,45.906067%,92.89856%);stop-opacity:1;"/>
<stop offset="0.542969" style="stop-color:rgb(45.501709%,46.296692%,92.89856%);stop-opacity:1;"/>
<stop offset="0.546875" style="stop-color:rgb(45.111084%,46.687317%,92.89856%);stop-opacity:1;"/>
<stop offset="0.550781" style="stop-color:rgb(44.720459%,47.076416%,92.89856%);stop-opacity:1;"/>
<stop offset="0.554687" style="stop-color:rgb(44.33136%,47.467041%,92.89856%);stop-opacity:1;"/>
<stop offset="0.558594" style="stop-color:rgb(43.940735%,47.633362%,92.89856%);stop-opacity:1;"/>
<stop offset="0.5625" style="stop-color:rgb(43.55011%,47.799683%,92.89856%);stop-opacity:1;"/>
<stop offset="0.566406" style="stop-color:rgb(43.113708%,48.213196%,92.698669%);stop-opacity:1;"/>
<stop offset="0.570312" style="stop-color:rgb(42.677307%,48.628235%,92.498779%);stop-opacity:1;"/>
<stop offset="0.574219" style="stop-color:rgb(42.332458%,49.01886%,92.498779%);stop-opacity:1;"/>
<stop offset="0.578125" style="stop-color:rgb(41.989136%,49.409485%,92.498779%);stop-opacity:1;"/>
<stop offset="0.582031" style="stop-color:rgb(41.598511%,49.603271%,92.498779%);stop-opacity:1;"/>
<stop offset="0.585937" style="stop-color:rgb(41.209412%,49.798584%,92.498779%);stop-opacity:1;"/>
<stop offset="0.589844" style="stop-color:rgb(40.818787%,50.184631%,92.498779%);stop-opacity:1;"/>
<stop offset="0.59375" style="stop-color:rgb(40.428162%,50.570679%,92.498779%);stop-opacity:1;"/>
<stop offset="0.597656" style="stop-color:rgb(40.037537%,50.959778%,92.349243%);stop-opacity:1;"/>
<stop offset="0.601563" style="stop-color:rgb(39.646912%,51.350403%,92.199707%);stop-opacity:1;"/>
<stop offset="0.605469" style="stop-color:rgb(39.405823%,51.589966%,92.199707%);stop-opacity:1;"/>
<stop offset="0.609375" style="stop-color:rgb(39.16626%,51.831055%,92.199707%);stop-opacity:1;"/>
<stop offset="0.613281" style="stop-color:rgb(38.775635%,52.171326%,92.199707%);stop-opacity:1;"/>
<stop offset="0.617188" style="stop-color:rgb(38.386536%,52.511597%,92.199707%);stop-opacity:1;"/>
<stop offset="0.621094" style="stop-color:rgb(37.995911%,52.902222%,92.199707%);stop-opacity:1;"/>
<stop offset="0.625" style="stop-color:rgb(37.605286%,53.292847%,92.199707%);stop-opacity:1;"/>
<stop offset="0.628906" style="stop-color:rgb(37.265015%,53.683472%,91.999817%);stop-opacity:1;"/>
<stop offset="0.632813" style="stop-color:rgb(36.924744%,54.074097%,91.799927%);stop-opacity:1;"/>
<stop offset="0.636719" style="stop-color:rgb(36.534119%,54.263306%,91.799927%);stop-opacity:1;"/>
<stop offset="0.640625" style="stop-color:rgb(36.14502%,54.454041%,91.799927%);stop-opacity:1;"/>
<stop offset="0.644531" style="stop-color:rgb(35.704041%,54.893494%,91.799927%);stop-opacity:1;"/>
<stop offset="0.648438" style="stop-color:rgb(35.263062%,55.334473%,91.799927%);stop-opacity:1;"/>
<stop offset="0.652344" style="stop-color:rgb(34.872437%,55.715942%,91.790771%);stop-opacity:1;"/>
<stop offset="0.65625" style="stop-color:rgb(34.483337%,56.098938%,91.783142%);stop-opacity:1;"/>
<stop offset="0.660156" style="stop-color:rgb(34.092712%,56.297302%,91.590881%);stop-opacity:1;"/>
<stop offset="0.664062" style="stop-color:rgb(33.702087%,56.495667%,91.398621%);stop-opacity:1;"/>
<stop offset="0.667969" style="stop-color:rgb(33.311462%,56.886292%,91.398621%);stop-opacity:1;"/>
<stop offset="0.671875" style="stop-color:rgb(32.922363%,57.276917%,91.398621%);stop-opacity:1;"/>
<stop offset="0.675781" style="stop-color:rgb(32.575989%,57.617188%,91.398621%);stop-opacity:1;"/>
<stop offset="0.679688" style="stop-color:rgb(32.23114%,57.957458%,91.398621%);stop-opacity:1;"/>
<stop offset="0.683594" style="stop-color:rgb(31.845093%,58.146667%,91.229248%);stop-opacity:1;"/>
<stop offset="0.6875" style="stop-color:rgb(31.460571%,58.337402%,91.059875%);stop-opacity:1;"/>
<stop offset="0.691406" style="stop-color:rgb(31.019592%,58.776855%,91.029358%);stop-opacity:1;"/>
<stop offset="0.695312" style="stop-color:rgb(30.580139%,59.217834%,90.99884%);stop-opacity:1;"/>
<stop offset="0.699219" style="stop-color:rgb(30.189514%,59.608459%,90.99884%);stop-opacity:1;"/>
<stop offset="0.703125" style="stop-color:rgb(29.798889%,59.999084%,90.99884%);stop-opacity:1;"/>
<stop offset="0.707031" style="stop-color:rgb(29.408264%,60.198975%,90.99884%);stop-opacity:1;"/>
<stop offset="0.710938" style="stop-color:rgb(29.019165%,60.398865%,90.99884%);stop-opacity:1;"/>
<stop offset="0.714844" style="stop-color:rgb(28.62854%,60.778809%,90.818787%);stop-opacity:1;"/>
<stop offset="0.71875" style="stop-color:rgb(28.237915%,61.160278%,90.638733%);stop-opacity:1;"/>
<stop offset="0.722656" style="stop-color:rgb(27.890015%,61.550903%,90.618896%);stop-opacity:1;"/>
<stop offset="0.726562" style="stop-color:rgb(27.54364%,61.941528%,90.59906%);stop-opacity:1;"/>
<stop offset="0.730469" style="stop-color:rgb(27.310181%,62.17804%,90.59906%);stop-opacity:1;"/>
<stop offset="0.734375" style="stop-color:rgb(27.076721%,62.416077%,90.59906%);stop-opacity:1;"/>
<stop offset="0.738281" style="stop-color:rgb(26.686096%,62.759399%,90.59906%);stop-opacity:1;"/>
<stop offset="0.742187" style="stop-color:rgb(26.295471%,63.102722%,90.59906%);stop-opacity:1;"/>
<stop offset="0.746094" style="stop-color:rgb(25.904846%,63.491821%,90.406799%);stop-opacity:1;"/>
<stop offset="0.75" style="stop-color:rgb(25.515747%,63.882446%,90.216064%);stop-opacity:1;"/>
<stop offset="0.753906" style="stop-color:rgb(25.125122%,64.089966%,90.206909%);stop-opacity:1;"/>
<stop offset="0.757812" style="stop-color:rgb(24.734497%,64.299011%,90.19928%);stop-opacity:1;"/>
<stop offset="0.761719" style="stop-color:rgb(24.343872%,64.671326%,90.19928%);stop-opacity:1;"/>
<stop offset="0.765625" style="stop-color:rgb(23.954773%,65.04364%,90.19928%);stop-opacity:1;"/>
<stop offset="0.769531" style="stop-color:rgb(23.513794%,65.483093%,90.19928%);stop-opacity:1;"/>
<stop offset="0.773437" style="stop-color:rgb(23.074341%,65.924072%,90.19928%);stop-opacity:1;"/>
<stop offset="0.777344" style="stop-color:rgb(22.73407%,66.311646%,89.99939%);stop-opacity:1;"/>
<stop offset="0.78125" style="stop-color:rgb(22.393799%,66.699219%,89.7995%);stop-opacity:1;"/>
<stop offset="0.785156" style="stop-color:rgb(22.003174%,66.891479%,89.7995%);stop-opacity:1;"/>
<stop offset="0.789062" style="stop-color:rgb(21.612549%,67.085266%,89.7995%);stop-opacity:1;"/>
<stop offset="0.792969" style="stop-color:rgb(21.221924%,67.430115%,89.7995%);stop-opacity:1;"/>
<stop offset="0.796875" style="stop-color:rgb(20.831299%,67.774963%,89.7995%);stop-opacity:1;"/>
<stop offset="0.800781" style="stop-color:rgb(20.440674%,68.161011%,89.7995%);stop-opacity:1;"/>
<stop offset="0.804688" style="stop-color:rgb(20.051575%,68.547058%,89.7995%);stop-opacity:1;"/>
<stop offset="0.808594" style="stop-color:rgb(19.66095%,68.737793%,89.634705%);stop-opacity:1;"/>
<stop offset="0.8125" style="stop-color:rgb(19.270325%,68.928528%,89.46991%);stop-opacity:1;"/>
<stop offset="0.816406" style="stop-color:rgb(18.829346%,69.367981%,89.434814%);stop-opacity:1;"/>
<stop offset="0.820313" style="stop-color:rgb(18.389893%,69.80896%,89.399719%);stop-opacity:1;"/>
<stop offset="0.824219" style="stop-color:rgb(17.999268%,70.198059%,89.399719%);stop-opacity:1;"/>
<stop offset="0.828125" style="stop-color:rgb(17.608643%,70.588684%,89.399719%);stop-opacity:1;"/>
<stop offset="0.832031" style="stop-color:rgb(17.268372%,70.779419%,89.399719%);stop-opacity:1;"/>
<stop offset="0.835938" style="stop-color:rgb(16.928101%,70.970154%,89.399719%);stop-opacity:1;"/>
<stop offset="0.839844" style="stop-color:rgb(16.537476%,71.359253%,89.224243%);stop-opacity:1;"/>
<stop offset="0.84375" style="stop-color:rgb(16.148376%,71.749878%,89.048767%);stop-opacity:1;"/>
<stop offset="0.847656" style="stop-color:rgb(15.924072%,72.099304%,89.024353%);stop-opacity:1;"/>
<stop offset="0.851562" style="stop-color:rgb(15.699768%,72.44873%,88.999939%);stop-opacity:1;"/>
<stop offset="0.855469" style="stop-color:rgb(15.292358%,72.679138%,88.999939%);stop-opacity:1;"/>
<stop offset="0.859375" style="stop-color:rgb(14.886475%,72.911072%,88.999939%);stop-opacity:1;"/>
<stop offset="0.863281" style="stop-color:rgb(14.49585%,73.301697%,88.999939%);stop-opacity:1;"/>
<stop offset="0.867188" style="stop-color:rgb(14.10675%,73.692322%,88.999939%);stop-opacity:1;"/>
<stop offset="0.871094" style="stop-color:rgb(13.716125%,74.082947%,88.812256%);stop-opacity:1;"/>
<stop offset="0.875" style="stop-color:rgb(13.3255%,74.473572%,88.626099%);stop-opacity:1;"/>
<stop offset="0.878906" style="stop-color:rgb(12.934875%,74.685669%,88.612366%);stop-opacity:1;"/>
<stop offset="0.882812" style="stop-color:rgb(12.54425%,74.899292%,88.598633%);stop-opacity:1;"/>
<stop offset="0.886719" style="stop-color:rgb(12.203979%,75.267029%,88.598633%);stop-opacity:1;"/>
<stop offset="0.890625" style="stop-color:rgb(11.863708%,75.634766%,88.598633%);stop-opacity:1;"/>
<stop offset="0.894531" style="stop-color:rgb(11.422729%,76.074219%,88.598633%);stop-opacity:1;"/>
<stop offset="0.898437" style="stop-color:rgb(10.983276%,76.515198%,88.598633%);stop-opacity:1;"/>
<stop offset="0.902344" style="stop-color:rgb(10.592651%,76.707458%,88.400269%);stop-opacity:1;"/>
<stop offset="0.90625" style="stop-color:rgb(10.203552%,76.899719%,88.20343%);stop-opacity:1;"/>
<stop offset="0.910156" style="stop-color:rgb(9.812927%,77.23999%,88.200378%);stop-opacity:1;"/>
<stop offset="0.914062" style="stop-color:rgb(9.422302%,77.581787%,88.198853%);stop-opacity:1;"/>
<stop offset="0.917969" style="stop-color:rgb(9.031677%,77.96936%,88.198853%);stop-opacity:1;"/>
<stop offset="0.921875" style="stop-color:rgb(8.642578%,78.356934%,88.198853%);stop-opacity:1;"/>
<stop offset="0.925781" style="stop-color:rgb(8.251953%,78.578186%,88.198853%);stop-opacity:1;"/>
<stop offset="0.929687" style="stop-color:rgb(7.861328%,78.799438%,88.198853%);stop-opacity:1;"/>
<stop offset="0.933594" style="stop-color:rgb(7.521057%,79.15802%,88.038635%);stop-opacity:1;"/>
<stop offset="0.9375" style="stop-color:rgb(7.180786%,79.518127%,87.879944%);stop-opacity:1;"/>
<stop offset="0.941406" style="stop-color:rgb(6.739807%,79.957581%,87.838745%);stop-opacity:1;"/>
<stop offset="0.945312" style="stop-color:rgb(6.300354%,80.39856%,87.799072%);stop-opacity:1;"/>
<stop offset="0.949219" style="stop-color:rgb(5.909729%,80.789185%,87.799072%);stop-opacity:1;"/>
<stop offset="0.953125" style="stop-color:rgb(5.519104%,81.17981%,87.799072%);stop-opacity:1;"/>
<stop offset="0.957031" style="stop-color:rgb(5.128479%,81.369019%,87.799072%);stop-opacity:1;"/>
<stop offset="0.960937" style="stop-color:rgb(4.73938%,81.559753%,87.799072%);stop-opacity:1;"/>
<stop offset="0.964844" style="stop-color:rgb(4.348755%,81.950378%,87.649536%);stop-opacity:1;"/>
<stop offset="0.96875" style="stop-color:rgb(3.95813%,82.341003%,87.5%);stop-opacity:1;"/>
<stop offset="0.972656" style="stop-color:rgb(3.727722%,82.681274%,87.5%);stop-opacity:1;"/>
<stop offset="0.976562" style="stop-color:rgb(3.49884%,83.021545%,87.5%);stop-opacity:1;"/>
<stop offset="0.980469" style="stop-color:rgb(3.097534%,83.261108%,87.5%);stop-opacity:1;"/>
<stop offset="0.984375" style="stop-color:rgb(2.697754%,83.502197%,87.5%);stop-opacity:1;"/>
<stop offset="0.988281" style="stop-color:rgb(2.355957%,83.891296%,87.5%);stop-opacity:1;"/>
<stop offset="0.992187" style="stop-color:rgb(2.015686%,84.281921%,87.5%);stop-opacity:1;"/>
<stop offset="0.996094" style="stop-color:rgb(1.625061%,84.672546%,87.298584%);stop-opacity:1;"/>
<stop offset="1" style="stop-color:rgb(1.235962%,85.063171%,87.098694%);stop-opacity:1;"/>
</linearGradient>
</defs>
<g id="surface1">
<g clip-path="url(#clip1)" clip-rule="nonzero">
<g clip-path="url(#clip2)" clip-rule="nonzero">
<g clip-path="url(#clip3)" clip-rule="nonzero">
<path style=" stroke:none;fill-rule:nonzero;fill:url(#linear0);" d="M 769.140625 40.890625 L 40.890625 40.890625 L 40.890625 769.140625 L 769.140625 769.140625 Z M 769.140625 40.890625 "/>
</g>
</g>
</g>
</g>
</svg>
